<svg width="32" height="32" viewBox="0 0 32 32" fill="none" xmlns="http://www.w3.org/2000/svg">
  <!-- Fondo circular blanco -->
  <rect x="0" y="0" width="32" height="32" rx="16" fill="#FFF"></rect>
  <g transform="translate(6 3)">
    <ellipse cx="10" cy="10" rx="9" ry="8.5" fill="#fff"></ellipse>
    <path fill-rule="evenodd" clip-rule="evenodd" d="M10.01 17.45c4.56 0 8.18-3.62 8.18-8.18s-3.62-8.18-8.18-8.18-8.18 3.62-8.18 8.18 3.62 8.18 8.18 8.18Zm0-4.46c2.01 0 3.6-1.59 3.6-3.6s-1.59-3.6-3.6-3.6-3.6 1.59-3.6 3.6 1.59 3.6 3.6 3.6Z" fill="#001D3D"></path>
    <path fill-rule="evenodd" clip-rule="evenodd" d="M1.03 17.93c.03-.05.07-.09.12-.11 2.67-1.41 6.37.29 7.08 3.36.03.13-.05.26-.18.33-2.67 1.41-6.37-.29-7.08-3.36a.18.18 0 0 1-.06-.22Zm16.1.03a.19.19 0 0 0-.06-.11c-.03-.03-.07-.07-.11-.08-2.67-1.41-6.37.29-7.08 3.36a.2.2 0 0 0 .03.18c.01.02.03.04.05.06.01.01.02.03.04.04.02.02.04.04.06.05 2.67 1.41 6.37-.29 7.08-3.36a.2.2 0 0 0-.01-.2Z" fill="#001D3D"></path>
  </g>
</svg>
