<svg xmlns="http://www.w3.org/2000/svg" width="104" height="26" ><path fill-rule="evenodd" d="M16.348 13.114c0 4.424-2.878 7.787-7.03 7.787-2.242 0-3.818-.939-4.848-2.454l-.061 1.636c0 .273-.182.455-.455.455H.984c-.272 0-.484-.182-.484-.455V.841C.5.57.682.387.955.387h3.303c.272 0 .454.182.454.454v6.576c1-1.333 2.545-2.091 4.606-2.091 4.152 0 7.03 3.394 7.03 7.788M8.44 9.144c-2.242 0-3.788 1.576-3.788 3.97s1.546 3.97 3.788 3.97c2.182 0 3.818-1.576 3.818-3.97 0-2.364-1.636-3.97-3.818-3.97m13.309 11.394h-3.303c-.273 0-.455-.182-.455-.455V.841c0-.272.182-.454.455-.454h3.303c.272 0 .454.182.454.454v19.242c0 .273-.182.455-.454.455m24.002.363c2.97 0 5.546-1.545 5.576-4.545.03-2.273-1.454-3.545-3.333-4.303l-2.091-.818c-.818-.303-1.424-.727-1.424-1.455 0-.636.454-1.181 1.424-1.181.879 0 1.727.424 2.697 1.242.273.212.485.243.697 0l1.333-1.606c.152-.182.212-.424.03-.636-1.242-1.485-3.03-2.273-4.97-2.273-2.757 0-5.18 1.636-5.18 4.485 0 2.06 1.332 3.303 3.242 4.06l1.878.758c1.091.454 1.546.818 1.546 1.545 0 .849-.667 1.243-1.667 1.243-1.152 0-2.182-.515-3.424-1.455-.243-.182-.515-.242-.758.121l-1.06 1.485c-.212.334-.243.667-.06.879 1.18 1.394 3.06 2.454 5.544 2.454m17.977-4.545c-.03 3-2.607 4.545-5.576 4.545-2.485 0-4.364-1.06-5.546-2.454-.181-.212-.151-.545.061-.879l1.06-1.485c.243-.363.516-.303.758-.12 1.243.939 2.273 1.454 3.424 1.454 1 0 1.667-.394 1.667-1.243 0-.727-.455-1.09-1.545-1.545l-1.88-.758c-1.908-.757-3.242-2-3.242-4.06 0-2.849 2.425-4.485 5.182-4.485 1.94 0 3.727.788 4.97 2.273.182.212.121.454-.03.636l-1.334 1.606c-.212.243-.424.212-.697 0-.97-.818-1.818-1.242-2.697-1.242-.97 0-1.424.545-1.424 1.181 0 .728.606 1.152 1.424 1.455l2.091.818c1.879.758 3.364 2.03 3.334 4.303m18.466 4.182h3.272c.273 0 .455-.182.455-.455v-7.787c0-2.03.909-3.122 2.484-3.122 1.607 0 2.364 1.091 2.364 3.122v7.787c0 .273.182.455.485.455h3.242c.273 0 .455-.182.455-.455v-7.787c0-2.03.909-3.122 2.485-3.122 1.636 0 2.363 1.091 2.363 3.122v7.787c0 .273.182.455.455.455h3.273c.272 0 .454-.182.454-.455v-8.696c0-3.88-1.939-6.061-5.121-6.061-2.303 0-3.758 1.121-4.576 2.636-.818-1.727-2.303-2.636-4.212-2.636-2.03 0-3.363 1.03-4.182 2.424l-.09-1.576c0-.363-.182-.484-.455-.484h-3.151c-.273 0-.455.181-.455.454v13.94c0 .272.182.454.454.454m-50.754.393a7.788 7.788 0 1 0 0-15.575 7.788 7.788 0 0 0 0 15.575m-.008-3.94c2.086 0 3.777-1.726 3.777-3.855s-1.69-3.855-3.777-3.855c-2.086 0-3.777 1.726-3.777 3.855s1.691 3.855 3.777 3.855m48.842-3.847a7.788 7.788 0 1 1-15.576 0 7.788 7.788 0 0 1 15.576 0m-4.019-.008c0 2.13-1.69 3.855-3.777 3.855-2.086 0-3.777-1.725-3.777-3.854s1.691-3.855 3.777-3.855 3.777 1.726 3.777 3.855" clip-rule="evenodd"></path><path fill="currentColor" fill-rule="evenodd" d="M64.616 21.5a.3.3 0 0 1 .114-.107c2.747-1.39 6.085.167 6.787 3.165a.28.28 0 0 1-.147.316c-2.748 1.39-6.086-.168-6.787-3.165a.28.28 0 0 1 .033-.21m15.714.02a.3.3 0 0 0-.126-.127c-2.747-1.39-6.085.168-6.786 3.165a.28.28 0 0 0 .147.316c2.747 1.39 6.085-.167 6.787-3.165a.28.28 0 0 0-.022-.189" clip-rule="evenodd"></path></svg>