<svg width="20" height="26" viewBox="0 0 20 26" fill="none" xmlns="http://www.w3.org/2000/svg">
<rect width="20" height="26" fill="#FFFFFF"></rect>
<path fill-rule="evenodd" clip-rule="evenodd" d="M9.86058 19.228C14.6786 19.228 18.5844 15.3222 18.5844 10.5041C18.5844 5.68608 14.6786 1.78027 9.86058 1.78027C5.04253 1.78027 1.13672 5.68608 1.13672 10.5041C1.13672 15.3222 5.04253 19.228 9.86058 19.228ZM9.85171 14.8144C12.1885 14.8144 14.0828 12.881 14.0828 10.4961C14.0828 8.11116 12.1885 6.17778 9.85171 6.17778C7.51495 6.17778 5.62064 8.11116 5.62064 10.4961C5.62064 12.881 7.51495 14.8144 9.85171 14.8144Z" fill="#001D3D"/>
<path fill-rule="evenodd" clip-rule="evenodd" d="M1.04547 19.8637C1.07544 19.8141 1.11893 19.7724 1.1733 19.7449C4.25089 18.1884 7.99014 19.9321 8.77591 23.29C8.80906 23.4316 8.74091 23.578 8.61096 23.6438C5.53364 25.2002 1.79438 23.4565 1.00834 20.0986C0.988986 20.0162 1.0041 19.9323 1.04547 19.8637ZM18.6486 19.8873C18.6369 19.8639 18.6223 19.8419 18.6054 19.8218C18.5789 19.7907 18.546 19.7645 18.508 19.7451C15.4305 18.1887 11.6912 19.9323 10.9054 23.2903C10.8874 23.3672 10.8991 23.4451 10.9343 23.5112C10.9404 23.5226 10.9473 23.5337 10.955 23.5446C10.9627 23.5554 10.9709 23.5658 10.98 23.5756C11.0051 23.6032 11.0356 23.6265 11.0704 23.644C14.1477 25.2005 17.887 23.4568 18.673 20.0989C18.6804 20.0679 18.6828 20.0366 18.6807 20.0061C18.6794 19.9864 18.6762 19.9671 18.6714 19.9483C18.6661 19.9273 18.6584 19.9069 18.6486 19.8873Z" fill="#001D3D"/>
</svg>
