<svg width="39" height="32" viewBox="0 0 39 32" fill="none" xmlns="http://www.w3.org/2000/svg">
<path fill-rule="evenodd" clip-rule="evenodd" d="M3.12057 27.3169C3.1479 27.2716 3.18756 27.2337 3.23714 27.2085C6.04372 25.7891 9.45369 27.3792 10.1703 30.4415C10.2005 30.5706 10.1383 30.7041 10.0198 30.7641C7.21351 32.1834 3.80353 30.5933 3.08671 27.5311C3.06906 27.4559 3.08284 27.3795 3.12057 27.3169ZM19.1736 27.3384C19.1629 27.3171 19.1496 27.297 19.1341 27.2786C19.11 27.2503 19.08 27.2264 19.0454 27.2088C16.2388 25.7894 12.8288 27.3795 12.1123 30.4417C12.0958 30.5118 12.1065 30.5829 12.1386 30.6432C12.1442 30.6536 12.1505 30.6637 12.1575 30.6736C12.1645 30.6835 12.172 30.693 12.1802 30.7019C12.2032 30.7271 12.231 30.7484 12.2627 30.7643C15.069 32.1837 18.479 30.5936 19.1958 27.5314C19.2026 27.5031 19.2048 27.4745 19.2028 27.4467C19.2016 27.4288 19.1987 27.4112 19.1944 27.394C19.1895 27.3749 19.1825 27.3563 19.1736 27.3384Z" fill="#001D3D"/>
<path d="M18.217 24.3442C18.0581 24.5031 17.8463 24.5296 17.661 24.3442L16.0988 22.782C14.5895 23.7617 12.789 24.3442 10.8296 24.3442C5.56042 24.3442 1.29743 20.1607 1.29743 14.8121C1.29743 9.43698 5.56042 5.25343 10.8296 5.25343C16.0988 5.25343 20.3617 9.43698 20.3617 14.8121C20.3617 16.8509 19.7527 18.7044 18.6936 20.2401L20.2294 21.7758C20.4147 21.9612 20.4147 22.1465 20.2294 22.3319L18.217 24.3442ZM5.13677 14.8121C5.13677 18.1218 7.59925 20.6373 10.8296 20.6373C11.7563 20.6373 12.6301 20.4254 13.398 20.0547L11.3327 17.9894C11.1473 17.8041 11.1473 17.6188 11.3327 17.4334L13.345 15.4211C13.5039 15.2622 13.7157 15.2357 13.9011 15.4211L15.9399 17.4599C16.3106 16.6655 16.5224 15.7918 16.5224 14.8121C16.5224 11.4758 14.0864 8.96038 10.8296 8.96038C7.59925 8.96038 5.13677 11.4758 5.13677 14.8121ZM31.2054 5.46525C31.4172 5.46525 31.6291 5.57116 31.7085 5.78299L37.9044 23.5499C38.0103 23.8147 37.8514 24 37.5602 24H34.4357C34.2239 24 34.065 23.9206 33.9856 23.6823L33.0854 20.955H26.0951L25.1948 23.6823C25.1154 23.9206 24.9565 24 24.7447 24H21.6203C21.329 24 21.1966 23.8147 21.3025 23.5499L27.4984 5.78299C27.5779 5.57116 27.7897 5.46525 28.0015 5.46525H31.2054ZM27.1807 17.5923H31.9997L29.5902 10.2313L27.1807 17.5923Z" fill="#001D3D"/>
</svg>
