<svg width="50" height="50" viewBox="0 0 50 50" fill="none" xmlns="http://www.w3.org/2000/svg">
<path d="M47.7006 23.5504C47.4006 23.2254 47.0756 22.9754 46.7506 22.7254L47.1256 17.5254C47.2506 15.7004 46.6256 13.8754 45.3506 12.5254C45.1256 12.3004 44.8756 12.1004 44.6256 11.9004V7.20039C44.6256 3.45039 41.5756 0.400391 37.8256 0.400391H12.1756C10.3506 0.400391 8.65061 1.10039 7.37561 2.40039C6.10061 3.70039 5.37561 5.40039 5.37561 7.20039V11.9004C5.12561 12.1004 4.87561 12.3004 4.65061 12.5254C3.40061 13.8754 2.75061 15.7004 2.87561 17.5254L3.25061 22.7504C2.90061 23.0004 2.57561 23.2754 2.30061 23.5754C0.95061 25.0004 0.25061 26.9754 0.37561 28.9754L1.37561 43.0254C1.65061 46.7254 4.77561 49.6504 8.47561 49.6504H41.4756C45.2006 49.6504 48.3256 46.7504 48.5756 43.0254L49.5756 28.9754C49.7256 26.9754 49.0256 25.0004 47.6506 23.5504H47.7006ZM10.3756 5.37539C10.8506 4.90039 11.5006 4.62539 12.1756 4.62539H37.8256C39.2256 4.62539 40.3756 5.77539 40.3756 7.17539V10.3754H9.62561V7.17539C9.62561 6.50039 9.90061 5.85039 10.3756 5.37539ZM7.12561 17.2004C7.07561 16.5504 7.30061 15.8754 7.75061 15.4004C8.20061 14.9254 8.85061 14.6504 9.50061 14.6504H40.4506C41.1256 14.6504 41.7506 14.9254 42.2006 15.4004C42.6506 15.8754 42.8756 16.5504 42.8256 17.2004L42.5256 21.2754C42.5256 21.2754 42.4256 21.2754 42.3756 21.2754H7.57561C7.57561 21.2754 7.47561 21.2754 7.40061 21.2754L7.10061 17.2004H7.12561ZM44.3506 42.7254C44.2506 44.2254 42.9756 45.4004 41.4756 45.4004H8.50061C7.00061 45.4004 5.75061 44.2254 5.62561 42.7254L4.62561 28.6754C4.57561 27.8504 4.85061 27.0504 5.40061 26.4504C5.95061 25.8504 6.75061 25.5004 7.57561 25.5004H42.4006C43.2256 25.5004 44.0006 25.8504 44.5756 26.4504C45.1256 27.0504 45.4256 27.8504 45.3506 28.6754L44.3506 42.7254Z" fill="#3956E8"/>
</svg>