<svg width="24" height="24" viewBox="0 0 24 24" fill="none" xmlns="http://www.w3.org/2000/svg">
<path fill-rule="evenodd" clip-rule="evenodd" d="M6.58598 7.32333H8.04517C8.51461 7.32333 8.89517 7.70389 8.89517 8.17333C8.89517 8.64277 8.51461 9.02333 8.04517 9.02333H4.98569C4.97467 9.02354 4.96363 9.02354 4.95258 9.02333H4.5087C4.03926 9.02333 3.6587 8.64277 3.6587 8.17333V4.63585C3.6587 4.16641 4.03926 3.78585 4.5087 3.78585C4.97814 3.78585 5.3587 4.16641 5.3587 4.63585V6.14284C7.36753 3.86351 10.4437 2.74782 13.4953 3.27236C15.8621 3.675 17.9088 5.01699 19.2384 6.90122C20.2104 8.27854 20.7991 9.9456 20.8496 11.7473C20.852 11.8313 20.8532 11.9155 20.8532 11.9999C20.8532 12 20.8532 12 20.8532 12.0001C20.8531 12.4695 20.4725 12.85 20.0031 12.8499C19.5337 12.8499 19.1532 12.4693 19.1532 11.9999C19.1532 11.9999 19.1532 11.9998 19.1532 11.9998C19.1531 11.9123 19.1516 11.8251 19.1485 11.7384C19.0511 9.0417 17.4472 6.66218 15.0625 5.53354C14.6517 5.33912 14.2178 5.18183 13.7644 5.06642C13.6246 5.03084 13.4845 4.99964 13.3444 4.97275C12.9089 4.88993 12.4594 4.84659 11.9998 4.84659H11.9997C9.8967 4.84641 7.92863 5.76912 6.58598 7.32333ZM3.99655 11.1499C4.46597 11.15 4.84648 11.5305 4.84648 11.9999C4.84648 12 4.84648 12 4.84648 12.0001C4.84649 12.0876 4.84806 12.1747 4.85118 12.2614C4.90041 13.6253 5.335 14.9081 6.06107 15.9889C6.777 17.0527 7.77117 17.9136 8.9393 18.4673C9.34944 18.6613 9.78265 18.8182 10.2353 18.9334C10.375 18.969 10.5151 19.0002 10.6553 19.0271C11.0908 19.1099 11.5402 19.1533 11.9998 19.1533H11.9999C14.1029 19.1534 16.071 18.2307 17.4137 16.6765H15.9545C15.485 16.6765 15.1045 16.296 15.1045 15.8265C15.1045 15.3571 15.485 14.9765 15.9545 14.9765H19.014C19.025 14.9763 19.036 14.9763 19.047 14.9765H19.4909C19.9604 14.9765 20.3409 15.3571 20.3409 15.8265V19.364C20.3409 19.8334 19.9604 20.214 19.4909 20.214C19.0215 20.214 18.6409 19.8334 18.6409 19.364V17.857C16.6321 20.1364 13.5558 21.2521 10.5041 20.7274C9.60742 20.5749 8.75664 20.2875 7.97339 19.8868C6.67803 19.2258 5.58046 18.2619 4.76082 17.0981C3.78911 15.7209 3.2005 14.054 3.15002 12.2526C3.14766 12.1686 3.14647 12.0844 3.14648 11.9999C3.14648 11.9999 3.14648 11.9998 3.14648 11.9998C3.14656 11.5304 3.52713 11.1499 3.99655 11.1499Z" fill="#3956E8"/>
</svg>
