<svg width="24" height="24" viewBox="0 0 24 24" fill="none" xmlns="http://www.w3.org/2000/svg">
<path fill-rule="evenodd" clip-rule="evenodd" d="M9.31971 14.6845C7.83815 13.2033 7.83815 10.8063 9.31971 9.32508C10.8013 7.84389 13.2102 7.84389 14.6805 9.32508C16.162 10.8063 16.162 13.2033 14.6805 14.6845C13.968 15.3968 13.0179 15.7926 12.0001 15.7926C10.9822 15.7926 10.0322 15.3968 9.31971 14.6845ZM10.6769 13.3277C11.3781 14.0287 12.6108 14.0287 13.312 13.3277H13.3233C14.0471 12.6041 14.0471 11.4168 13.3233 10.6932C12.9501 10.3314 12.4864 10.1505 12.0001 10.1505C11.5138 10.1505 11.0388 10.3314 10.6769 10.6932C9.95305 11.4168 9.95305 12.6041 10.6769 13.3277Z" fill="#64748B"/>
<path fill-rule="evenodd" clip-rule="evenodd" d="M20.6179 11.6656C20.4256 11.8578 20.4256 12.1857 20.6179 12.3892V12.3553L21.2739 13.045C21.9072 13.7008 22.1221 14.6506 21.828 15.5099L21.6132 16.1657C21.2739 17.172 20.3465 17.8391 19.2947 17.8391H18.3447C18.0619 17.8391 17.8244 18.0652 17.8244 18.3479L17.8018 19.2977C17.7905 20.2135 17.2703 21.0276 16.456 21.4347L15.834 21.7399C15.4947 21.9209 15.1214 22 14.7482 22C14.1262 22 13.5042 21.7626 13.0292 21.2877L12.3619 20.6206C12.1583 20.4284 11.8417 20.4284 11.6381 20.6206L10.9482 21.2764C10.2923 21.9095 9.34225 22.1244 8.48272 21.8304L7.82676 21.6156C6.82021 21.2764 6.15294 20.3492 6.15294 19.2977V18.3479C6.15294 18.0652 5.92675 17.8278 5.64401 17.8278L4.694 17.8052C3.78924 17.7939 2.97494 17.2738 2.5678 16.4597L2.26244 15.8378C1.78744 14.8993 1.96839 13.7686 2.71482 13.0224L3.38209 12.3553C3.57435 12.1631 3.57435 11.8352 3.38209 11.6317L2.72613 10.9419C2.0928 10.2862 1.88922 9.33638 2.17196 8.47707L2.38685 7.82127C2.72613 6.81497 3.65352 6.14787 4.70531 6.14787H5.65532C5.93806 6.14787 6.17556 5.92173 6.17556 5.63906L6.19818 4.68929C6.2208 3.78475 6.72973 2.97066 7.54402 2.56361L8.16605 2.25833C9.10474 1.78344 10.2357 1.97566 10.9708 2.73321L11.6381 3.40031C11.8304 3.59253 12.1583 3.59253 12.3619 3.40031L13.0518 2.74452C13.7077 2.11134 14.6578 1.90782 15.5173 2.19049L16.1732 2.40532C17.1798 2.74452 17.8471 3.67168 17.8471 4.72321V5.67298C17.8471 5.95565 18.0733 6.19309 18.356 6.19309L19.306 6.21571C20.2108 6.22701 21.0251 6.74713 21.4322 7.56122L21.7376 8.18309C22.2126 9.12155 22.0316 10.2522 21.2852 10.9985L20.6179 11.6656ZM19.8828 14.4131L19.2268 13.7234L19.2381 13.746C18.3221 12.7963 18.3447 11.2585 19.2721 10.3314L19.9393 9.66428C20.0864 9.50599 20.1316 9.26854 20.0298 9.06502L19.7245 8.44315C19.634 8.27354 19.4643 8.16048 19.2721 8.16048L18.3221 8.13786C17.0102 8.10394 15.9357 7.01849 15.9357 5.69559V4.74582C15.9357 4.53099 15.8 4.32747 15.5851 4.25963L14.9292 4.0448C14.7482 3.97696 14.5447 4.02219 14.4089 4.15787L13.7191 4.81366C12.7691 5.72951 11.2309 5.71821 10.3036 4.77974L9.6363 4.11264C9.47796 3.95435 9.22915 3.90912 9.03689 4.01088L8.41486 4.31616C8.24522 4.39531 8.13212 4.57622 8.13212 4.76844L8.1095 5.71821C8.07557 7.0298 6.98985 8.10394 5.66663 8.10394H4.71662C4.49043 8.10394 4.28686 8.23962 4.219 8.45445L4.00412 9.11025C3.93626 9.29116 3.9815 9.49468 4.11721 9.63036L4.77317 10.3201C5.68925 11.2698 5.66663 12.8076 4.73924 13.7347L4.07197 14.4018C3.91364 14.5601 3.8684 14.7976 3.97019 15.0011L4.27555 15.623C4.36602 15.7926 4.53567 15.9056 4.72793 15.9056L5.67794 15.9282C6.98985 15.9622 8.06426 17.0476 8.06426 18.3705V19.3203C8.06426 19.5351 8.19998 19.7386 8.41486 19.8065L9.07082 20.0213C9.25177 20.0891 9.45534 20.0439 9.59106 19.9082L10.2809 19.2524C10.7446 18.8115 11.3327 18.5853 11.9661 18.5853C12.5994 18.5853 13.2214 18.8228 13.6964 19.2977L14.3637 19.9648C14.522 20.1118 14.7595 20.157 14.9631 20.0552L15.5851 19.7386C15.7548 19.6482 15.8679 19.4786 15.8679 19.2864L15.8905 18.3366C15.9244 17.025 17.0102 15.9509 18.3334 15.9509H19.2834C19.5096 15.9509 19.7131 15.8039 19.781 15.589L19.9959 14.9332C20.0637 14.7523 20.0185 14.5488 19.8828 14.4131Z" fill="#64748B"/>
</svg>
