<svg width="24" height="24" viewBox="0 0 24 24" fill="none" xmlns="http://www.w3.org/2000/svg">
<path fill-rule="evenodd" clip-rule="evenodd" d="M18.0029 5.14746C19.0245 5.14746 19.8523 5.97559 19.8525 6.99707V7.14844H21.0039L21.0908 7.15234C21.5192 7.19591 21.8533 7.55819 21.8535 7.99805C21.8535 8.43809 21.5194 8.80015 21.0908 8.84375L21.0039 8.84863H19.8525V8.99902C19.8525 10.0207 19.0247 10.8486 18.0029 10.8486H12.8506V13.1514H15.002C16.0235 13.1514 16.8514 13.9794 16.8516 15.001V15.1523H21.0039L21.0908 15.1562C21.5194 15.1998 21.8544 15.562 21.8545 16.002C21.8542 16.4418 21.5193 16.8042 21.0908 16.8477L21.0039 16.8525H16.8516V17.0029C16.8514 18.0245 16.0235 18.8525 15.002 18.8525H8.99902C7.97738 18.8525 7.14857 18.0245 7.14844 17.0029V16.8525H2.99609C2.52693 16.8524 2.14675 16.4711 2.14648 16.002C2.1466 15.5327 2.52683 15.1525 2.99609 15.1523H7.14844V15.001C7.14859 13.9794 7.97739 13.1514 8.99902 13.1514H11.1504V10.8486H5.99707C4.97541 10.8486 4.14746 10.0207 4.14746 8.99902V8.84863H2.99609C2.52676 8.8485 2.14648 8.46741 2.14648 7.99805C2.14673 7.52889 2.52691 7.14857 2.99609 7.14844H4.14746V6.99707C4.14775 5.97564 4.97559 5.14754 5.99707 5.14746H18.0029ZM8.99902 14.8516C8.91628 14.8516 8.84879 14.9183 8.84863 15.001V17.0029C8.84877 17.0857 8.91626 17.1533 8.99902 17.1533H15.002C15.0847 17.1533 15.1522 17.0856 15.1523 17.0029V15.001C15.1522 14.9183 15.0846 14.8516 15.002 14.8516H8.99902ZM5.99707 6.84766C5.91447 6.84774 5.84697 6.91452 5.84668 6.99707V8.99902C5.84668 9.08182 5.91429 9.14933 5.99707 9.14941H18.0029C18.0858 9.14941 18.1533 9.08187 18.1533 8.99902V6.99707C18.153 6.91447 18.0856 6.84766 18.0029 6.84766H5.99707Z" fill="#64748B"/>
</svg>
